<?xml version="1.0" encoding="utf-8"?>
<!-- Generator: Adobe Illustrator 21.1.0, SVG Export Plug-In . SVG Version: 6.00 Build 0)  -->
<svg version="1.1" id="Layer_1" xmlns="http://www.w3.org/2000/svg" xmlns:xlink="http://www.w3.org/1999/xlink" x="0px" y="0px"
	 viewBox="0 0 56 56" style="enable-background:new 0 0 56 56;" xml:space="preserve">
<style type="text/css">
	.st0{fill:#EDE9D6;}
	.st1{fill:#808080;}
</style>
<g>
	<circle class="st0" cx="28" cy="28" r="27.6"/>
	<g>
		<g>
			<path class="st1" d="M39.3,42.4c-1.5,0-2.9-0.7-3.8-1.8c-0.9,1.1-2.2,1.8-3.8,1.8s-2.9-0.7-3.8-1.8c-0.9,1.1-2.2,1.8-3.8,1.8
				s-2.9-0.7-3.8-1.8c-0.9,1.1-2.2,1.8-3.8,1.8c-2.6,0-4.8-2.1-4.8-4.8V25.6c0-8.8,7.2-16,16-16s16,7.2,16,16v12.1
				C44,40.3,41.9,42.4,39.3,42.4z M35.5,36.7c0.6,0,1,0.4,1,1c0,1.5,1.2,2.8,2.8,2.8s2.8-1.2,2.8-2.8V25.6c0-7.7-6.3-14-14-14
				s-14,6.3-14,14v12.1c0,1.5,1.2,2.8,2.8,2.8s2.8-1.2,2.8-2.8c0-0.6,0.4-1,1-1s1,0.4,1,1c0,1.5,1.2,2.8,2.8,2.8
				c1.5,0,2.8-1.2,2.8-2.8c0-0.6,0.4-1,1-1s1,0.4,1,1c0,1.5,1.2,2.8,2.8,2.8c1.5,0,2.8-1.2,2.8-2.8C34.5,37.1,35,36.7,35.5,36.7z"/>
		</g>
		<g>
			<path class="st1" d="M21.8,28.3c-1.9,0-3.4-1.5-3.4-3.4c0-0.6,0.4-1,1-1s1,0.4,1,1c0,0.7,0.6,1.4,1.4,1.4c0.7,0,1.4-0.6,1.4-1.4
				c0-0.6,0.4-1,1-1s1,0.4,1,1C25.2,26.8,23.7,28.3,21.8,28.3z"/>
		</g>
		<g>
			<path class="st1" d="M34.2,28.3c-1.9,0-3.4-1.5-3.4-3.4c0-0.6,0.4-1,1-1s1,0.4,1,1c0,0.7,0.6,1.4,1.4,1.4c0.7,0,1.4-0.6,1.4-1.4
				c0-0.6,0.4-1,1-1s1,0.4,1,1C37.5,26.8,36,28.3,34.2,28.3z"/>
		</g>
		<g>
			<path class="st1" d="M28.2,35.3c-1.9,0-3.4-1.5-3.4-3.4s1.5-3.4,3.4-3.4s3.4,1.5,3.4,3.4S30,35.3,28.2,35.3z M28.2,30.5
				c-0.7,0-1.4,0.6-1.4,1.4c0,0.7,0.6,1.4,1.4,1.4c0.7,0,1.4-0.6,1.4-1.4C29.5,31.2,28.9,30.5,28.2,30.5z"/>
		</g>
	</g>
</g>
</svg>
