<?xml version="1.0" encoding="utf-8"?>
<!-- Generator: Adobe Illustrator 21.1.0, SVG Export Plug-In . SVG Version: 6.00 Build 0)  -->
<svg version="1.1" id="Layer_1" xmlns="http://www.w3.org/2000/svg" xmlns:xlink="http://www.w3.org/1999/xlink" x="0px" y="0px"
	 viewBox="0 0 56 56" style="enable-background:new 0 0 56 56;" xml:space="preserve">
<style type="text/css">
	.st0{fill:#EDE9D6;}
	.st1{fill:#808080;}
</style>
<g>
	<circle class="st0" cx="28" cy="28" r="27.6"/>
	<g>
		<path class="st1" d="M43.7,32.8c-0.6-0.6-0.8-1.4-0.6-2.1l0.6-2.4c0.4-1.5-0.1-3.1-1.2-4.3l-6.3-6.3c-0.5-0.5-1.2-0.8-1.9-0.8
			c-0.7,0-1.4,0.3-1.9,0.8c-0.2,0.2-0.4,0.5-0.5,0.8l-5.8-5.8c-0.5-0.5-1.2-0.8-1.9-0.8s-1.4,0.3-1.9,0.8c-0.3,0.3-0.4,0.5-0.6,0.8
			c-0.4-0.2-0.9-0.4-1.3-0.4c-0.7,0-1.4,0.3-1.9,0.8c-0.9,0.9-1,2.2-0.4,3.2c-0.3,0.1-0.6,0.3-0.8,0.6c-0.3,0.3-0.4,0.5-0.6,0.8
			c-1-0.6-2.4-0.4-3.2,0.4c-1,1-1,2.8,0,3.8l0.1,0.1c-0.3,0.1-0.5,0.3-0.8,0.5c-1,1-1,2.8,0,3.8l0.8,0.8c-0.3,0.1-0.5,0.3-0.8,0.5
			c-1,1-1,2.8,0,3.8l5.5,5.5c4,4.1,9.4,6.3,15.1,6.3c0.3,0,0.5-0.1,0.6-0.3l4.6-4.6l0,0l5-5C44,34,44,33.8,44,33.6s-0.1-0.5-0.3-0.6
			L43.7,32.8z M36.9,32.9l-0.6,2.4c-0.3,1.1-0.1,2.3,0.6,3.3l-3.7,3.8c-5.1-0.1-9.9-2.1-13.5-5.8L14.1,31c-0.2-0.2-0.3-0.4-0.3-0.6
			c0-0.3,0.1-0.5,0.3-0.6c0.1-0.2,0.4-0.3,0.6-0.3c0.3,0,0.5,0.1,0.6,0.3l4.4,4.4c0.4,0.4,0.9,0.4,1.3,0c0.4-0.4,0.4-0.9,0-1.3l-7-7
			c-0.4-0.4-0.4-0.9,0-1.3c0.4-0.3,0.9-0.4,1.3,0l6.9,6.9c0.4,0.4,0.9,0.4,1.3,0c0.4-0.4,0.4-0.9,0-1.3l-8.8-8.9
			c-0.4-0.4-0.4-0.9,0-1.3c0.4-0.4,0.9-0.4,1.3,0l8.8,8.8c0.4,0.4,0.9,0.4,1.3,0c0.4-0.4,0.4-0.9,0-1.3l-7.5-7.6
			c-0.4-0.4-0.4-0.9,0-1.3c0.3-0.3,0.9-0.3,1.3,0l7.6,7.6l0,0l3.8,3.8c0.4,0.4,0.9,0.4,1.3,0c0.2-0.2,0.3-0.4,0.3-0.6
			c0-0.3-0.1-0.5-0.3-0.6l-3.8-3.8c-0.4-0.4-0.4-0.9,0-1.3c0.4-0.4,0.9-0.4,1.3,0l6.3,6.3C36.9,31,37.2,32,36.9,32.9z M42,27.9
			l-0.6,2.4c-0.3,1.1-0.1,2.3,0.6,3.3l-3.8,3.8c-0.2-0.5-0.3-1-0.1-1.5l0.6-2.4c0.4-1.5-0.1-3.1-1.2-4.3l-6.3-6.3c-1-1-2.8-1-3.8,0
			c-0.2,0.2-0.4,0.5-0.5,0.8l-5.8-5.8l0,0l-1.3-1.3c-0.4-0.4-0.4-0.9,0-1.3c0.4-0.4,0.9-0.4,1.3,0l1.1,1.1c0,0,0.1,0.1,0.1,0.1
			l4.1,4.1c0.4,0.4,0.9,0.4,1.3,0c0.4-0.4,0.4-0.9,0-1.3l-4.2-4.2c-0.1-0.1-0.2-0.4-0.2-0.6c0-0.3,0.1-0.5,0.3-0.6
			c0.3-0.3,0.9-0.3,1.3,0l7.6,7.6l0,0l3.8,3.8c0.4,0.4,0.9,0.4,1.3,0c0.2-0.2,0.3-0.4,0.3-0.6c0-0.3-0.1-0.5-0.3-0.6l-3.8-3.8
			c-0.4-0.4-0.4-0.9,0-1.3c0.4-0.4,0.9-0.4,1.3,0l6.3,6.3C41.9,26,42.2,27,42,27.9z"/>
		<path class="st1" d="M36.9,16.4c1.5,0,2.7,1.2,2.7,2.7c0,0.5,0.4,0.9,0.9,0.9s0.9-0.4,0.9-0.9c0-2.5-2-4.5-4.5-4.5
			c-0.5,0-0.9,0.4-0.9,0.9C36,16,36.4,16.4,36.9,16.4z"/>
		<path class="st1" d="M38.7,11.9c-0.5,0-0.9,0.4-0.9,0.9s0.4,0.9,0.9,0.9c2,0,3.6,1.6,3.6,3.6c0,0.5,0.4,0.9,0.9,0.9
			c0.5,0,0.9-0.4,0.9-0.9C44.1,14.3,41.7,11.9,38.7,11.9z"/>
		<path class="st1" d="M19.1,39.6c-1.5,0-2.7-1.2-2.7-2.7c0-0.5-0.4-0.9-0.9-0.9c-0.5,0-0.9,0.4-0.9,0.9c0,2.5,2,4.5,4.5,4.5
			c0.5,0,0.9-0.4,0.9-0.9S19.6,39.6,19.1,39.6z"/>
		<path class="st1" d="M17.3,42.3c-2,0-3.6-1.6-3.6-3.6c0-0.5-0.4-0.9-0.9-0.9s-0.9,0.4-0.9,0.9c0,3,2.4,5.4,5.4,5.4
			c0.5,0,0.9-0.4,0.9-0.9C18.2,42.7,17.8,42.3,17.3,42.3z"/>
	</g>
</g>
</svg>
